
<svg viewBox="0 0 48 48" xmlns="http://www.w3.org/2000/svg" xmlns:xlink="http://www.w3.org/1999/xlink"><defs><path d="M23.365 4.955c.876-.692 2.19-.05 2.19 1.087v34.554c0 1.187-1.266 1.83-2.19 1.137L9.589 31.253H1.363A1.37 1.37 0 0 1 0 29.87v-13.1c0-.741.584-1.384 1.363-1.384h8.226Zm15.827 10.034c.767 0 1.397.585 1.468 1.332l.007.142-.001 5.406h5.407a1.474 1.474 0 0 1 .142 2.942l-.142.007h-5.407v5.406a1.474 1.474 0 0 1-2.941.142l-.007-.142v-5.406h-5.406a1.474 1.474 0 0 1-.142-2.942l.142-.007h5.406v-5.406c0-.814.66-1.474 1.474-1.474Z" id="a"/></defs><use fill="#fff" xlink:href="#a" fill-rule="evenodd"/></svg>